<svg width="225" height="157" viewBox="0 0 225 157" fill="none" xmlns="http://www.w3.org/2000/svg">
<g clip-path="url(#clip0_1_237)">
<path d="M91.3007 0.814328C93.4241 0.784564 95.0601 1.11812 96.5513 1.82833C100.688 3.79988 101.206 7.73683 99.7103 10.6382C99.5912 10.8681 99.4588 11.1011 99.2905 11.2951C98.3412 12.3809 97.6207 13.6217 96.8725 14.8441C95.5045 17.0742 93.9691 19.172 92.0663 20.9845C89.8064 23.1377 87.1913 24.5848 84.0703 25.0415C83.4124 25.138 82.8069 25.3628 82.306 25.8102C82.1849 25.917 82.1069 26.0874 82.0484 26.2454C81.9653 26.4712 82.2814 26.8222 82.4928 26.7452C82.6965 26.6732 82.8924 26.5811 83.0778 26.4702C83.4494 26.246 83.8617 26.0977 84.2909 26.034C88.2936 25.3905 91.4546 23.2978 94.1107 20.3277C95.4778 18.7985 96.6447 17.1286 97.7254 15.3931C97.9327 15.0616 98.1862 14.7455 98.3227 14.3863C98.7599 13.2327 99.7123 13.2327 100.675 13.322C100.94 13.3456 101.226 13.5725 101.422 13.7818C101.758 14.1369 101.907 14.6008 101.928 15.0924C101.993 16.5344 101.916 17.9538 101.365 19.3188C100.672 21.0307 99.6805 22.5486 98.4459 23.9136C97.0716 25.4326 95.5394 26.7822 93.8942 27.9984C93.4436 28.3329 92.9592 28.6388 92.4553 28.8851C90.3503 29.9145 88.2433 30.9418 86.1106 31.9138C85.3675 32.2524 84.5619 32.4751 83.7675 32.6763C82.3522 33.0355 81.1986 32.546 80.3191 31.4232C79.8655 30.8433 79.4867 30.2039 79.0731 29.5922C78.2741 28.3983 77.2801 27.3471 76.1327 26.4825C74.5953 25.3248 72.8516 24.7203 70.9581 24.551C70.3541 24.5037 69.7465 24.5382 69.1518 24.6536C68.4025 24.7942 67.8914 24.4976 67.4511 23.9598C67.4234 23.927 67.3947 23.8941 67.3711 23.8572C66.1262 21.9749 64.8802 20.0937 63.6415 18.2063C63.4762 17.9538 63.3531 17.6726 63.2207 17.3996C63.1293 17.2097 63.2094 17.0547 63.388 16.9788C64.3465 16.5683 65.3482 16.6463 66.3376 16.7807C67.2859 16.909 68.1983 17.1995 69.0902 17.5505C70.0621 17.9333 71.0648 18.1745 72.1024 18.3376C73.4359 18.5565 74.8016 18.4702 76.0968 18.0852C77.8816 17.5515 79.6273 16.8844 81.3885 16.2676C81.5496 16.2111 81.7005 16.1157 81.8483 16.0264C82.0505 15.9042 82.1531 15.6282 82.0577 15.4742C82.0024 15.3796 81.9173 15.3059 81.8157 15.2649C81.7141 15.2238 81.6018 15.2177 81.4963 15.2474C81.1176 15.3357 80.744 15.4537 80.3755 15.581C79.2261 15.9781 78.0756 16.3681 76.9374 16.792C74.5522 17.6787 72.1886 17.6285 69.8106 16.7417C68.8798 16.3948 67.915 16.127 66.9493 15.8868C65.6633 15.5666 64.3691 15.5707 63.0903 15.9822C62.7424 16.0951 62.649 15.9987 62.5525 15.6436C62.221 14.4305 62.4253 13.2266 62.6203 12.0279C62.7065 11.5014 63.0246 11.0631 63.4033 10.6977C65.145 9.02999 67.0129 7.57262 69.4525 7.04509C70.9355 6.72488 72.4082 6.35438 73.8861 6.00235C75.5787 5.61004 77.2206 5.02463 78.7796 4.25762C79.6335 3.83272 80.5038 3.43862 81.3711 3.03938C83.8024 1.91659 86.3867 1.3747 89.0233 1.03806C89.9254 0.92517 90.8337 0.859486 91.3007 0.814328ZM32.0114 48.2804C32.0956 46.9729 32.1859 45.9774 32.2167 44.9818C32.2403 44.246 32.2423 43.4998 32.151 42.7711C31.9704 41.324 32.3234 40.0186 33.048 38.787C33.4472 38.1076 33.9265 37.4836 34.5208 36.9704C36.8402 34.9711 38.6784 32.5398 40.615 30.1967C42.1104 28.3894 43.5605 26.5441 45.0887 24.7644C47.5355 21.9113 50.3209 19.4317 53.5322 17.4591C54.3779 16.9398 55.2924 16.5241 56.1914 16.0941C57.112 15.6549 58.1086 15.5789 59.1144 15.5491C59.4628 15.5333 59.8106 15.5913 60.135 15.7194C60.4594 15.8474 60.753 16.0426 60.9966 16.2922C61.4574 16.7489 61.909 17.2302 62.2785 17.7598C62.8041 18.5051 63.2803 19.2841 63.7041 20.0916C64.3585 21.3657 65.0931 22.597 65.9035 23.7781C66.5069 24.6505 66.9513 25.5742 66.8035 26.6857C66.781 26.855 66.8087 27.0336 66.8323 27.205C67.21 29.9915 66.6588 32.6476 65.7002 35.2441C65.3513 36.1884 64.8156 37.0351 64.2152 37.8356C62.0907 40.6682 59.605 43.1519 56.836 45.3462C55.0933 46.7255 53.1299 47.7631 51.1491 48.7617C50.0264 49.3293 48.9097 49.9112 47.7982 50.5003C47.1065 50.8677 46.4568 51.2978 45.9036 51.8674C45.7651 52.0111 45.5239 52.1773 45.3597 52.1496C44.8599 52.0696 44.4175 52.2933 43.9516 52.3241C43.1767 52.3764 42.3875 52.3959 41.6177 52.3077C40.848 52.2194 40.0783 52.0614 39.3424 51.7719C38.9842 51.6303 38.587 51.5892 38.2083 51.4969C38.04 51.4558 37.9784 51.2167 38.1057 51.0812C38.314 50.8595 38.5131 50.6245 38.7502 50.4377C39.365 49.9554 39.9736 49.4607 40.6253 49.0317C42.1494 48.031 43.7001 47.0694 45.2376 46.0861C47.7284 44.4943 50.168 42.8327 52.4084 40.893C54.9484 38.7067 57.1523 36.158 58.9491 33.329C60.0771 31.5535 60.9115 29.6671 61.3435 27.594C61.6545 26.1058 61.9655 24.6207 62.0507 23.0987C62.0725 22.7972 62.0535 22.4941 61.9942 22.1976C61.9644 22.0642 61.7807 21.8907 61.6504 21.8754C61.5283 21.861 61.2953 22.0047 61.2635 22.1217C61.1475 22.5373 61.0551 22.9684 61.0285 23.3974C60.9186 25.098 60.5451 26.7483 60.1253 28.3884C59.6676 30.1741 58.7942 31.7752 57.7781 33.3044C55.591 36.5937 52.8569 39.3648 49.7246 41.7571C47.3744 43.5532 44.8712 45.1204 42.369 46.6917C41.1967 47.4381 40.0418 48.2114 38.9052 49.0111C37.9723 49.6618 37.1358 50.4223 36.5611 51.423C36.364 51.7658 36.0869 51.9033 35.7113 51.9105C35.4075 51.9166 35.1027 51.9567 34.7999 51.9464C33.6135 51.9054 32.6262 51.1808 32.2988 50.021C32.1171 49.3621 32.072 48.6632 32.0114 48.2804ZM130.079 19.5374C130.089 19.6647 130.141 19.8042 130.104 19.9171C129.831 20.7392 129.572 21.5695 129.246 22.3721C128.819 23.4236 128.154 24.3616 127.303 25.1124C127.074 25.3135 126.848 25.5177 126.633 25.7322C124.859 27.4852 122.668 28.3134 120.249 28.6973C118.174 29.0257 116.088 29.0236 114.011 28.882C112.062 28.7506 110.151 28.3114 108.27 27.7777C108.021 27.7079 107.786 27.5837 107.54 27.5006C106.93 27.2943 106.545 26.8848 106.232 26.3162C104.984 24.046 104.127 21.6516 103.84 19.0704C103.788 18.6004 103.775 18.1057 103.859 17.6439C104.063 16.5272 104.033 15.4034 104.078 14.2806C104.079 14.2662 104.23 14.2231 104.283 14.2498C105.213 14.7199 106.163 15.1376 107.169 15.4321C108.764 15.8991 110.406 16.0438 112.049 16.1711C114.471 16.362 116.898 16.4995 119.319 16.7058C120.136 16.7756 120.939 16.9952 121.754 17.1174C122.175 17.18 122.607 17.1923 123.036 17.2036C123.186 17.2077 123.278 16.8895 123.16 16.7859C122.998 16.6463 122.84 16.4728 122.649 16.4061C122.119 16.2214 121.581 16.0212 121.029 15.9391C118.967 15.6401 116.891 15.4449 114.809 15.3541C112.515 15.2484 110.208 15.1325 107.96 14.5977C106.515 14.2539 105.147 13.7059 103.964 12.7709C103.313 12.2557 102.71 11.6943 102.4 10.8917C102.354 10.7706 102.307 10.6372 102.221 10.5458C101.545 9.82128 101.606 8.94275 101.751 8.0827C101.873 7.35508 102.061 6.64017 102.314 5.94693C102.701 4.88778 103.183 3.86454 103.596 2.81462C103.865 2.13109 104.278 1.83654 105.062 1.81396C107.764 1.73596 110.444 1.88785 113.103 2.36304C116.266 2.92751 119.396 3.6408 122.433 4.70612C123.414 5.05096 124.374 5.46046 125.35 5.82583C125.546 5.89972 125.765 5.92128 125.976 5.94385C126.11 5.95822 126.263 5.65341 126.18 5.53846C126.08 5.40401 125.982 5.24288 125.841 5.16899C125.192 4.82209 124.548 4.45672 123.867 4.17962C121.975 3.40783 120.009 2.86285 118.03 2.3692C117.148 2.15059 116.259 1.97099 115.374 1.7688C115.3 1.75238 115.233 1.70517 115.165 1.6713C115.247 1.6477 115.329 1.62101 115.411 1.60151C115.454 1.59316 115.498 1.59109 115.541 1.59535C118.359 1.8037 121.159 2.12391 123.862 3.00859C125.47 3.53612 127.062 4.10778 128.586 4.85596C129.995 5.54975 131.335 6.34925 132.527 7.37556C133.34 8.07449 134.228 8.56096 135.311 8.67283C135.654 8.70875 135.999 8.79085 136.327 8.89964C137.41 9.2568 137.796 10.355 137.152 11.3053C136.887 11.6953 136.549 12.0484 136.198 12.3665C135.586 12.9207 134.945 13.4411 134.305 13.9625C133.292 14.7907 132.353 15.6846 131.616 16.7807C131.403 17.0989 131.125 17.3986 130.814 17.6223C128.515 19.2675 126.137 20.7731 123.46 21.7614C121.735 22.3998 119.948 22.7159 118.135 22.9242C117.23 23.0279 116.318 23.0874 115.408 23.1357C113.579 23.2321 111.766 23.0669 109.958 22.7949C109.404 22.7108 108.84 22.681 108.279 22.6523C108.19 22.6482 108.039 22.7754 108.015 22.8678C107.992 22.9632 108.059 23.1234 108.14 23.1931C108.273 23.3048 108.427 23.387 108.594 23.4343C109.095 23.5729 109.596 23.7361 110.108 23.8038C111.914 24.0429 113.72 24.32 115.551 24.085C115.939 24.0347 116.331 24.0173 116.723 24.0091C120.809 23.9126 124.588 22.7775 128.072 20.6458C128.591 20.3287 129.101 19.9972 129.625 19.6914C129.764 19.6113 129.944 19.6021 130.105 19.561L130.079 19.5374ZM133.733 34.4241C134.092 34.3194 134.289 34.6058 134.528 34.769C135.787 35.6311 137.102 36.3905 138.569 36.8411C139.354 37.0823 140.159 37.265 140.964 37.4312C141.299 37.5 141.662 37.5031 142.002 37.4569C143.773 37.2208 145.553 37.2321 147.334 37.2095C148.114 37.1993 148.893 37.1131 149.671 37.0453C149.842 37.0293 150.005 36.9723 150.149 36.8791C150.198 36.8408 150.239 36.7923 150.268 36.7369C150.297 36.6814 150.314 36.6203 150.317 36.5578C150.315 36.4501 150.227 36.2951 150.134 36.251C149.945 36.1606 149.726 36.0765 149.522 36.0826C147.482 36.1494 145.444 36.2345 143.405 36.3156C143.144 36.3259 142.877 36.3177 142.627 36.3751C141.569 36.6112 140.55 36.3905 139.545 36.1063C138.332 35.7622 137.173 35.2502 136.101 34.5852C134.537 33.6215 133.16 32.4331 131.879 31.1255C131.507 30.7458 131.209 30.3312 131.15 29.779C130.923 27.594 130.999 25.4418 131.819 23.3666C131.957 23.0146 132.072 22.9458 132.398 23.1151C134.251 24.0676 136.11 25.0087 137.941 26.0011C140.348 27.3021 142.679 28.7407 144.922 30.3096C145.279 30.5536 145.653 30.7724 146.04 30.9644C146.118 31.0055 146.309 30.9367 146.375 30.8577C146.437 30.7807 146.457 30.5949 146.406 30.5097C146.298 30.3271 146.152 30.1536 145.986 30.0212C145.274 29.4537 144.578 28.8594 143.82 28.3555C140.635 26.2341 137.28 24.4093 133.862 22.6923C133.629 22.5763 133.39 22.4706 133.158 22.3536C132.299 21.9277 132.299 21.9267 132.665 21.0974C133.125 20.0608 133.692 19.0858 134.396 18.196C134.961 17.4796 135.528 16.7643 136.126 16.0767C136.702 15.4147 137.202 14.7147 137.518 13.8906C137.581 13.7289 137.655 13.5715 137.739 13.4195C137.89 13.1404 138.078 13.0419 138.38 13.1455C139.117 13.4011 139.864 13.6402 140.573 13.9604C142.675 14.9097 144.659 16.0746 146.581 17.3472C148.937 18.9074 151.139 20.6886 153.157 22.6666C153.558 23.0587 153.997 23.4159 154.436 23.7679C154.506 23.8243 154.706 23.811 154.777 23.7494C154.853 23.6837 154.911 23.4877 154.867 23.4107C154.698 23.1099 154.501 22.8254 154.28 22.5609C153.058 21.1385 151.687 19.872 150.209 18.7225C147.708 16.7708 145.027 15.0612 142.202 13.6166C141.157 13.0829 140.088 12.6077 138.964 12.2598C138.564 12.1366 138.514 11.9724 138.766 11.6204C139.356 10.7952 140.053 10.1004 141.028 9.7248C141.379 9.58933 141.67 9.55341 142.001 9.78433C143.822 11.0611 145.849 11.9694 147.817 12.9792C150.017 14.1164 152.11 15.4502 154.07 16.9644C154.756 17.492 155.374 18.1139 155.986 18.7276C157.859 20.6081 159.452 22.7475 160.718 25.0805C161.514 26.5324 161.993 28.1366 162.124 29.7872C162.214 30.908 162.722 31.6551 163.658 32.1837C164.036 32.3971 164.409 32.6199 164.78 32.8456C165.272 33.1453 165.673 33.5364 165.925 34.0618C166.341 34.9229 165.938 35.6516 164.994 35.7337C164.693 35.7594 164.387 35.7511 164.082 35.747C160.463 35.6916 157.034 36.5835 153.688 37.8582C151.777 38.5869 149.981 39.5547 148.187 40.5317C147.732 40.7801 147.257 40.9997 146.781 41.207C146.16 41.477 145.517 41.5201 144.873 41.2953C144.013 40.9956 143.141 40.7236 142.31 40.3562C141.358 39.9354 140.445 39.4295 139.518 38.9522C137.452 37.8869 135.68 36.4234 134.007 34.8326C133.89 34.7228 133.833 34.5493 133.75 34.4056L133.732 34.4241H133.733ZM40.8942 155.715C40.3728 155.715 39.8514 155.722 39.3311 155.714C36.7109 155.673 34.4335 154.762 32.4148 153.098C31.0804 151.987 29.6965 150.937 28.2674 149.952C26.068 148.45 23.5813 147.723 20.9354 147.553C18.9803 147.428 17.0334 147.588 15.0844 147.749C12.8326 147.937 10.5717 147.943 8.3148 147.844C7.48657 147.809 6.68502 147.617 5.94812 147.202C5.64638 147.033 5.31899 146.911 5.00596 146.76C3.86265 146.208 2.68342 146.104 1.46313 146.464C1.33997 146.501 1.20962 146.528 1.08236 146.531C1.00436 146.533 0.866843 146.49 0.859658 146.449C0.839132 146.337 0.833988 146.182 0.897619 146.104C1.05795 145.898 1.24348 145.715 1.44978 145.557C1.93728 145.197 2.42477 144.827 2.95025 144.529C3.31869 144.318 3.73641 144.128 4.18696 144.355C5.13528 144.281 6.0877 144.232 7.03396 144.128C9.0168 143.908 10.9966 143.652 12.9784 143.426C17.0365 142.962 21.0586 142.327 24.9463 141.02C26.5576 140.478 28.0724 139.732 29.5452 138.893C31.9745 137.508 34.5659 136.54 37.2549 135.805C38.5819 135.443 39.9346 135.458 41.2626 135.66C42.6328 135.868 43.968 136.268 45.215 136.915C47.0326 137.857 48.532 139.132 49.506 140.962C49.8953 141.689 50.273 142.422 50.6391 143.161C51.1963 144.29 51.767 145.411 52.275 146.561C52.6111 147.313 52.8887 148.089 53.1053 148.883C53.5528 150.563 52.9616 151.969 51.7731 153.133C51.4457 153.456 50.9757 153.657 50.5405 153.839C49.2977 154.354 48.0209 154.765 46.699 155.042C44.7819 155.443 42.8647 155.799 40.8942 155.715ZM176.515 57.0072C176.426 58.6831 176.381 59.9876 175.996 61.2438C175.842 61.7426 175.895 62.1644 176.181 62.5955C176.517 63.1018 176.832 63.6223 177.123 64.1555C177.441 64.7353 177.611 65.3593 177.556 66.0326C177.499 66.7449 177.194 67.142 176.511 67.3565C175.872 67.5577 175.225 67.5053 174.577 67.4161C173.632 67.2857 172.686 67.1523 171.742 67.023C170.947 66.9152 170.236 66.6227 169.64 66.0757C169.066 65.5461 168.506 64.997 167.917 64.4839C167.199 63.8558 166.482 63.2184 165.716 62.6519C163.877 61.291 161.808 60.5972 159.506 60.6916C158.545 60.7327 157.595 60.6691 156.652 60.4936C154.931 60.1734 153.422 59.4878 152.428 57.9534C151.142 55.9655 150.285 53.7938 149.676 51.5164C149.656 51.4415 149.699 51.3501 149.713 51.267C149.804 51.3039 149.937 51.3162 149.976 51.383C151.305 53.647 153.353 55.0941 155.611 56.2723C157.345 57.1775 159.059 58.1105 160.685 59.1973C160.867 59.3136 161.057 59.4175 161.253 59.5083C161.466 59.6109 161.742 59.5494 161.828 59.3892C161.951 59.1635 161.875 58.95 161.71 58.8001C161.389 58.5128 161.064 58.2121 160.697 57.9894C159.547 57.2935 158.378 56.6244 157.21 55.9573C156.796 55.7202 156.348 55.5395 155.941 55.2922C155.089 54.7719 154.217 54.2741 153.422 53.6768C150.692 51.6272 149.5 48.7915 149.333 45.456C149.312 45.0547 149.403 44.6863 149.592 44.3311C150.002 43.5583 150.477 42.8276 151.119 42.2344C151.725 41.6761 152.374 41.1629 153.018 40.6487C153.137 40.5533 153.326 40.5461 153.482 40.4968C153.511 40.6631 153.551 40.8294 153.564 40.9977C153.576 41.127 153.554 41.2573 153.55 41.3877C153.501 42.6849 153.858 43.8714 154.497 44.99C155.153 46.1334 155.999 47.1125 156.971 47.9951C158.288 49.1928 159.561 50.4357 160.721 51.7945C162.515 53.8944 163.908 56.2323 165.029 58.7468C165.191 59.0977 165.382 59.4348 165.599 59.7546C165.65 59.8326 165.866 59.8891 165.941 59.8449C166.08 59.7559 166.188 59.6252 166.248 59.4714C166.289 59.3677 166.24 59.2127 166.197 59.0947C165.982 58.5261 165.787 57.9483 165.528 57.4013C164.117 54.4332 162.275 51.7617 159.937 49.4453C158.98 48.497 158.004 47.5692 157.035 46.6332C156.248 45.8809 155.602 44.9939 155.127 44.014C154.496 42.7044 154.39 41.3548 154.821 39.9601C154.92 39.644 155.081 39.4182 155.384 39.293C156.383 38.8753 157.385 38.4627 158.382 38.0378C158.824 37.8489 159.101 38.0419 159.39 38.3631C162.106 41.3662 164.279 44.8193 165.811 48.5678C166.65 50.6163 167.464 52.6751 168.074 54.8078C168.164 55.0957 168.291 55.3707 168.452 55.6257C168.501 55.7079 168.688 55.7633 168.794 55.7407C168.854 55.7224 168.91 55.6912 168.957 55.6492C169.004 55.6072 169.042 55.5554 169.067 55.4975C169.123 55.3346 169.138 55.1604 169.11 54.9905C169.04 54.6076 168.959 54.2217 168.838 53.8512C167.635 50.1719 166.242 46.5736 164.262 43.2289C163.459 41.8862 162.558 40.6053 161.564 39.3966C161.153 38.8917 160.732 38.3939 160.317 37.891C160.167 37.7104 160.196 37.577 160.405 37.5144C161.612 37.149 162.848 36.9263 164.094 36.7508C164.624 36.6759 165.024 36.8698 165.349 37.2701C165.842 37.8756 166.355 38.4668 166.832 39.0856C169.095 42.0178 170.589 45.3256 171.523 48.8911C171.996 50.6943 172.385 52.5201 172.819 54.3336C172.899 54.6682 172.993 55.0017 173.112 55.325C173.126 55.3663 173.149 55.4042 173.178 55.4365C173.207 55.4688 173.243 55.4948 173.282 55.5128C173.322 55.5309 173.365 55.5407 173.408 55.5416C173.452 55.5425 173.495 55.5344 173.535 55.518C173.642 55.4769 173.782 55.3548 173.792 55.2583C173.823 54.9607 173.843 54.6497 173.789 54.3582C173.582 53.2498 173.391 52.1342 173.108 51.0453C172.691 49.4054 172.226 47.778 171.714 46.1652C170.675 42.9405 168.952 40.0894 166.839 37.462C166.678 37.2619 166.531 37.0515 166.397 36.8339C166.379 36.8021 166.475 36.641 166.511 36.644C167.067 36.6851 167.63 36.7046 168.176 36.8144C168.406 36.8606 168.635 37.071 168.794 37.266C169.235 37.7997 169.671 38.3457 170.056 38.9214C171.87 41.6432 173.348 44.5364 174.436 47.6246C175.071 49.4258 175.77 51.2116 176.051 53.1113C176.264 54.5276 176.394 55.9542 176.515 57.0072ZM84.9734 124.598C83.6926 124.473 82.2034 124.709 80.7727 125.293C80.4843 125.41 80.2431 125.356 80.0902 125.114C79.1111 123.557 77.7102 122.354 76.5792 120.924C76.1574 120.389 75.557 119.993 75.0202 119.553C74.6492 119.243 74.1763 119.083 73.6932 119.102C72.6761 119.137 71.8499 118.683 71.1089 118.049C70.8134 117.797 70.5681 117.486 70.2879 117.215C69.3211 116.28 68.2332 115.779 66.861 116.249C66.4515 116.389 66.0205 116.462 65.6038 116.581C65.377 116.647 65.2374 116.903 65.3041 117.081C65.3383 117.185 65.4026 117.276 65.4886 117.343C65.5747 117.41 65.6787 117.451 65.7875 117.459C65.9127 117.472 66.0441 117.44 66.1703 117.413C66.5511 117.329 66.9308 117.237 67.3095 117.148C67.8883 117.008 68.4631 117.046 68.9229 117.424C69.7265 118.08 70.4849 118.792 71.2536 119.49C71.2762 119.508 71.2434 119.642 71.2003 119.672C71.0956 119.745 70.9745 119.802 70.8544 119.848C70.2468 120.08 69.6351 120.297 69.0306 120.537C68.8079 120.625 68.6386 120.625 68.4456 120.456C68.1203 120.171 67.7796 119.899 67.4244 119.657C65.886 118.606 63.9668 118.91 62.9918 120.465C62.4027 121.406 61.7602 122.374 61.7807 123.573C61.7859 123.853 61.6555 124.071 61.4359 124.24C61.3661 124.292 61.2943 124.343 61.2368 124.408C60.542 125.183 59.7055 125.632 58.6402 125.707C58.2287 125.736 57.8346 125.998 57.4322 126.152C57.0946 126.28 56.8883 126.157 56.7189 125.811C56.5075 125.378 56.5886 124.974 56.7446 124.554C57.3635 122.869 58.2133 121.316 59.3391 119.915C59.3935 119.847 59.4448 119.775 59.5085 119.718C60.7462 118.576 61.3251 117.098 61.6514 115.495C61.713 115.2 61.7664 114.9 61.8177 114.601C62.1071 112.936 62.9713 111.624 64.285 110.592C65.3772 109.731 66.5777 109.018 67.8555 108.47C70.4562 107.354 73.1287 106.479 75.9203 105.988C77.547 105.701 79.1912 105.507 80.8405 105.558C81.7857 105.587 82.7258 105.819 83.6649 105.989C84.0898 106.066 84.5034 106.205 84.919 106.329C87.1626 106.999 89.403 107.678 91.6783 108.229C92.183 108.356 92.6766 108.525 93.1542 108.732C93.7854 109.001 94.1908 109.179 93.2825 109.813C92.9007 110.08 92.6092 110.484 92.3044 110.848C92.055 111.147 91.8436 111.478 91.6229 111.8C90.7382 113.094 89.482 113.649 87.9487 113.654C87.3832 113.656 86.8187 113.639 86.2563 113.67C84.6378 113.761 83.2349 114.406 81.9951 115.418C81.7354 115.631 81.5209 115.924 81.3608 116.221C81.2705 116.387 81.3105 116.639 81.3321 116.848C81.3495 117.025 81.7323 117.157 81.8688 117.045C81.9705 116.967 82.0616 116.876 82.1398 116.775C83.0419 115.534 84.3617 115.009 85.7883 114.727C86.3743 114.61 86.9953 114.648 87.5998 114.656C89.5857 114.681 91.2719 114.09 92.4409 112.382C92.6616 112.06 92.8699 111.726 93.1234 111.429C93.4026 111.101 93.7217 110.807 94.0337 110.507C94.0871 110.455 94.2062 110.423 94.2718 110.447C94.3303 110.466 94.3878 110.574 94.396 110.647C94.5336 111.838 94.3057 112.984 93.9506 114.107C93.7556 114.725 93.4898 115.324 93.2517 115.927C93.0926 116.331 92.9243 116.729 92.7652 117.132C92.6339 117.464 92.6236 117.79 92.7098 118.147C93.3122 120.671 91.899 122.621 90.145 123.619C89.0852 124.223 87.8928 124.558 86.673 124.593C86.1906 124.611 85.7124 124.598 84.9734 124.598Z" fill="black"/>
<path d="M55.3134 149.195C54.051 149.203 53.5645 148.64 53.7862 147.471C53.8909 146.918 54.0633 146.379 54.2018 145.833C54.3394 145.287 54.4718 144.74 54.6083 144.194C54.7396 143.667 54.6442 143.162 54.4759 142.66C54.3886 142.397 54.2378 142.207 53.9761 142.102C53.7739 142.021 53.5778 141.928 53.3828 141.834C52.5392 141.431 51.75 139.877 52.334 138.795C52.5587 138.378 52.7876 137.951 53.0873 137.589C54.4502 135.942 55.9589 134.453 57.8278 133.369C58.7279 132.846 59.6157 132.302 60.5106 131.771C60.6964 131.659 60.8975 131.569 61.07 131.44C62.1425 130.63 63.2262 129.834 64.269 128.988C65.5242 127.967 66.4817 126.666 67.5132 125.438C68.1546 124.673 68.7765 123.891 69.4437 123.15C70.1144 122.4 70.9963 121.87 71.9735 121.63C72.5739 121.476 73.1948 121.409 73.7768 121.587C75.1305 121.999 76.3077 122.71 77.14 123.894C77.414 124.285 77.6696 124.688 77.9169 125.097C78.6148 126.255 78.8847 127.501 78.6569 128.842C78.6199 129.055 78.5645 129.267 78.5214 129.478C78.3664 130.244 78.4958 130.931 79.0264 131.544C80.0486 132.724 80.1788 134.074 79.8782 135.574C79.5354 137.277 78.6732 138.618 77.3997 139.739C75.2137 141.667 72.6965 143.182 69.9702 144.211C67.9011 144.994 65.8054 145.697 63.6634 146.249C62.1024 146.652 60.6102 147.224 59.1487 147.891C58.4395 148.215 57.7272 148.538 57.0016 148.824C56.4341 149.045 55.8553 149.248 55.3134 149.195ZM46.8309 128.318C45.4792 128.417 44.2599 128.086 43.0673 127.684C41.7054 127.226 40.3343 126.853 38.9067 126.664C38.1359 126.562 37.3723 126.372 36.619 126.177C35.2037 125.81 33.7874 125.855 32.3557 126.048C30.4662 126.304 28.5758 126.574 26.6771 126.753C23.476 127.055 20.3078 127.521 17.2062 128.393C16.2466 128.663 15.2737 128.891 14.3244 129.192C12.6022 129.739 11.0719 130.615 9.83519 131.96C9.77566 132.023 9.72128 132.116 9.64841 132.136C9.49241 132.178 9.31075 132.235 9.16604 132.193C8.90946 132.118 8.89919 131.892 8.95974 131.661C9.12703 131.033 9.29946 130.407 9.45546 129.776C9.78798 128.429 10.5619 127.408 11.7955 126.807C12.8844 126.275 14.0011 125.775 15.1516 125.404C17.6671 124.591 20.2144 123.876 22.7453 123.109C24.2396 122.656 25.7349 122.21 27.2149 121.714C29.7376 120.869 32.0899 119.666 34.3211 118.221C35.3423 117.561 36.3727 116.916 37.4011 116.267C39.4978 114.945 41.7188 113.858 43.9787 112.847C45.8548 112.008 47.8346 111.542 49.8759 111.326C50.3932 111.271 50.9084 111.197 51.4277 111.157C52.7034 111.06 53.9401 111.316 55.145 111.682C56.3458 112.048 57.522 112.502 58.7043 112.93C58.9476 113.022 59.1808 113.14 59.4001 113.28C59.7942 113.524 60.0334 113.853 59.9667 114.356C59.8404 115.301 59.7686 116.248 59.4699 117.168C59.1364 118.189 58.496 118.782 57.4245 118.895C55.6654 119.081 54.4759 120.069 53.6928 121.589C53.3962 122.164 53.1786 122.783 52.9385 123.386C52.6973 123.989 52.4756 124.602 52.2416 125.209C51.4595 127.238 49.8287 128.062 47.8048 128.311C47.4631 128.355 47.11 128.318 46.8309 128.318ZM177.59 84.99L177.901 86.2462C178.506 88.6971 178.236 90.9929 176.628 93.0168C176.064 93.727 175.42 94.3818 174.778 95.0263C173.674 96.1337 172.538 97.2083 171.427 98.3064C169.874 99.8398 168.547 101.56 167.406 103.412C166.793 104.405 166.338 105.494 165.809 106.538C165.534 107.078 165.269 107.625 164.961 108.147C164.671 108.638 164.198 108.832 163.634 108.814C163.012 108.796 162.427 108.648 161.908 108.303C160.65 107.468 159.273 106.989 157.766 106.902C157.037 106.86 156.736 106.347 156.473 105.787C156.44 105.719 156.46 105.613 156.486 105.535C156.515 105.454 156.562 105.379 156.622 105.317C158.557 103.188 160.023 100.709 161.774 98.4399C163.445 96.2733 165.115 94.1088 166.9 92.0316C168.427 90.2529 169.929 88.4528 171.447 86.666C172.238 85.7331 173.132 84.9161 174.181 84.2747C174.738 83.9229 175.408 83.798 176.053 83.9257C176.341 83.977 176.616 84.3249 176.879 84.1053C177.041 83.9709 176.992 83.6117 177.103 83.3848C177.328 82.9251 177.959 82.6356 178.561 82.7629C179.07 82.8677 179.564 83.0345 180.033 83.2596C180.772 83.623 181.491 84.0325 182.189 84.4707C183.918 85.5535 185.62 86.6762 187.202 87.9745C188.914 89.3785 190.694 90.6973 192.319 92.2081C194.449 94.1918 196.438 96.3214 198.272 98.5815C198.574 98.9513 198.833 99.3537 199.045 99.7813C199.442 100.592 199.284 101.165 198.57 101.716C197.916 102.219 197.249 102.702 196.599 103.211C195.498 104.071 194.321 104.241 193.074 103.585C192.501 103.284 191.924 102.962 191.421 102.558C190.105 101.494 188.792 100.421 187.544 99.2773C185.355 97.2719 183.547 94.933 181.91 92.4698C181.046 91.1705 180.291 89.7973 179.533 88.4302C179.157 87.7518 178.85 87.0262 178.582 86.2955C178.377 85.7382 178.094 85.2917 177.563 85.0187L177.499 84.9448C177.528 84.962 177.559 84.977 177.59 84.99ZM160.196 62.7538C162.072 62.7251 163.648 63.4446 164.969 64.7572C165.308 65.0928 165.605 65.4674 165.918 65.8277C167.033 67.1106 168.245 68.2857 169.685 69.2073C170.633 69.8149 171.585 70.4215 172.533 71.0301C172.898 71.2641 173.026 71.6284 172.879 72.0389C172.821 72.2001 172.739 72.3561 172.649 72.5028C171.972 73.6143 171.293 74.7248 170.611 75.8332C169.796 77.1712 168.772 78.3701 167.578 79.3843C166.353 80.4188 165.088 81.4092 163.839 82.4181C163.737 82.5002 163.624 82.5669 163.524 82.649C162.789 83.2473 161.982 83.3982 161.086 83.0636C160.721 82.9271 160.341 82.8306 159.98 82.6839C156.763 81.3825 153.446 80.3623 150.176 79.2139C148.541 78.6392 146.947 77.9485 145.255 77.5431C145.17 77.5225 145.09 77.4866 145.01 77.4538C144.729 77.3378 144.625 77.1141 144.77 76.8277C145.357 75.668 145.888 74.4703 146.566 73.366C148.667 69.9586 151.431 67.1608 154.674 64.8311C155.737 64.0686 156.903 63.4979 158.143 63.072C158.81 62.8442 159.482 62.7169 160.196 62.7538ZM67.0154 67.9532C67.079 69.3407 66.6192 70.7304 65.8639 72.0276C65.5365 72.5911 65.1413 73.1155 64.4907 73.366C64.1715 73.4891 63.841 73.3095 63.8472 72.9708C63.8523 72.7183 63.8636 72.4361 63.9754 72.2196C64.9894 70.2388 64.8786 68.1759 64.3501 66.1232C63.7548 63.8099 62.438 61.9574 60.4439 60.614C60.1206 60.3954 59.783 60.1932 59.433 60.0218C57.7765 59.2038 56.1652 59.3075 54.6031 60.2856C53.7166 60.8377 52.9143 61.5149 52.2211 62.2961C51.3261 63.3019 50.4404 64.3169 49.5742 65.3473C48.7501 66.3275 47.7525 67.0798 46.6482 67.7048C45.6834 68.2498 44.6366 68.493 43.5374 68.5505C40.4205 68.7096 37.7285 67.6678 35.4326 65.6091C32.7026 63.1623 31.1867 60.0772 30.6653 56.4512C30.457 55.0052 30.5525 53.595 30.7526 52.1746C30.8306 51.6101 30.9814 51.0682 31.4341 50.6659C31.6763 50.4504 32.1032 50.4883 32.2161 50.7654C33.0444 52.8181 34.7152 53.7767 36.7432 54.2785C38.0733 54.608 39.4157 54.5392 40.7571 54.3822C43.1279 54.1051 45.4905 53.7561 47.8664 53.5386C50.9731 53.2543 54.0305 53.5324 56.9452 54.7404C61.0433 56.4389 64.1283 59.2336 66.0312 63.2721C66.7055 64.7059 67.0257 66.2269 67.0154 67.9521V67.9532ZM139.501 111.028C139.514 110.957 139.565 110.615 139.647 110.281C139.876 109.348 140.248 108.47 140.711 107.63C140.856 107.367 140.834 107.146 140.633 106.924C138.756 104.853 137.318 102.464 135.764 100.162C135.163 99.2712 134.772 98.2377 134.299 97.2617C134.128 96.9107 133.993 96.5432 133.851 96.1789C133.42 95.0705 132.632 94.2977 131.589 93.763C131.28 93.6039 130.966 93.454 130.665 93.2806C130.067 92.9368 129.99 92.6751 130.374 92.1434C130.679 91.7226 131.017 91.3244 131.37 90.9426C132.138 90.1165 132.974 89.3477 133.687 88.4785C134.467 87.5301 135.441 86.7973 136.294 85.9352C136.479 85.7485 136.782 85.7361 137.012 85.9209C137.384 86.2185 137.766 86.5172 138.075 86.8753C138.996 87.9396 140.071 88.7863 141.294 89.4863C141.925 89.8476 142.46 90.3853 143.011 90.8739C144.766 92.4304 146.512 93.9973 148.248 95.5744C149.308 96.5371 150.345 97.5295 151.389 98.5127C151.551 98.6579 151.699 98.8169 151.833 98.9879C152.215 99.5072 152.353 100.018 152.018 100.667C150.702 103.221 149.314 105.724 147.341 107.851C146.484 108.773 145.644 109.712 144.758 110.606C144.302 111.066 143.781 111.468 143.258 111.855C142.661 112.298 141.973 112.57 141.265 112.799C140.186 113.147 139.611 112.647 139.5 111.565C139.493 111.479 139.5 111.391 139.5 111.028H139.501ZM144.732 78.1558C145.11 78.2379 145.501 78.2841 145.865 78.4072C146.522 78.6279 147.169 78.8803 147.81 79.141C150.949 80.4137 153.988 81.8957 156.981 83.4752C158.745 84.406 160.522 85.3123 162.293 86.2298C162.409 86.2893 162.534 86.3334 162.644 86.4002C163.286 86.7778 163.445 87.5804 163.002 88.188C162.95 88.2568 162.894 88.3245 162.828 88.383C161.876 89.2297 161.219 90.3073 160.49 91.3337C159.182 93.1728 157.526 94.5943 155.455 95.5364C154.511 95.9654 153.628 96.0013 152.733 95.4512C152.291 95.1782 151.822 94.9463 151.386 94.6641C149.345 93.3432 147.322 91.9977 145.275 90.6871C143.926 89.8187 142.558 88.9804 141.172 88.1726C140.48 87.7713 139.894 87.292 139.441 86.6331C138.953 85.9198 138.521 85.1593 137.805 84.6267C137.618 84.4881 137.581 84.2521 137.646 84.0314C137.726 83.7431 137.831 83.4625 137.961 83.1929C138.067 83.0029 138.206 82.8328 138.371 82.69C139.681 81.4872 140.906 80.1899 142.348 79.1369C142.664 78.9071 142.996 78.7002 143.341 78.5181C143.769 78.2861 144.246 78.1617 144.732 78.1558Z" fill="black"/>
<path d="M127.685 115.662C127.761 115.263 127.826 114.657 127.997 114.081C128.192 113.421 128.165 112.803 127.891 112.184C127.663 111.669 127.46 111.14 127.199 110.64C125.169 106.738 123.754 102.596 122.415 98.4235C122.374 98.3003 122.324 98.1782 122.297 98.053C122.218 97.6866 122.295 97.3582 122.594 97.1139C123.707 96.2108 124.842 95.3384 126.187 94.7944C126.752 94.5666 127.329 94.4003 127.952 94.3911C128.291 94.385 128.629 94.2844 128.969 94.2248C129.266 94.1725 129.562 94.0894 129.862 94.0729C130.272 94.0483 130.628 94.192 130.867 94.5533C130.962 94.6987 131.055 94.8459 131.144 94.9946C133.399 98.6483 135.651 102.307 137.912 105.957C138.299 106.581 138.671 107.228 139.148 107.782C139.558 108.258 139.552 108.713 139.353 109.22C139.243 109.5 139.079 109.761 138.92 110.019C137.019 113.109 134.435 115.516 131.446 117.523C130.904 117.886 130.302 118.15 129.668 118.303C128.718 118.534 128.035 118.12 127.828 117.165C127.738 116.744 127.742 116.303 127.685 115.662ZM121.995 126.528C121.985 125.819 122.172 125.153 122.442 124.509C122.524 124.31 122.611 124.086 122.765 123.952C123.539 123.266 124.177 122.427 125.119 121.926C126.578 121.15 128.042 120.381 129.639 119.936C132.248 119.207 134.668 118.033 137.084 116.848C139.466 115.682 141.741 114.332 143.943 112.849C145.055 112.099 146.243 111.453 147.42 110.805C148.637 110.137 149.871 109.498 151.121 108.89C151.702 108.607 152.323 108.4 152.94 108.205C153.573 108.005 154.213 108.048 154.871 108.164C155.467 108.268 155.919 108.54 156.308 108.976C157.143 109.907 157.359 111.055 157.393 112.24C157.409 112.772 157.14 113.265 156.71 113.598C156.199 113.997 155.68 114.405 155.109 114.707C152.654 116.013 150.134 117.169 147.436 117.909C145.889 118.333 144.361 118.833 142.832 119.323C139.838 120.281 137.075 121.744 134.329 123.239C133.032 123.944 131.739 124.66 130.464 125.403C129.678 125.862 128.925 126.378 128.164 126.881C127.439 127.36 126.74 127.876 126.006 128.339C125.642 128.568 125.241 128.758 124.832 128.885C123.385 129.336 122.098 128.432 121.995 126.918C121.988 126.789 121.995 126.659 121.995 126.528ZM105.396 116.728C105.402 117.735 105.197 118.732 104.793 119.654C104.482 120.36 104.01 120.899 103.306 121.223C102.2 121.731 101.085 122.178 99.8542 122.338C97.6127 122.63 95.4082 123.095 93.3155 123.995C92.9974 124.131 92.6638 124.239 92.3272 124.32C92.1712 124.358 91.9865 124.319 91.8233 124.279C91.6416 124.234 91.4846 123.898 91.5677 123.745C91.669 123.555 91.7843 123.372 91.9125 123.198C93.0323 121.711 93.7384 120.061 93.9026 118.194C93.9949 117.141 94.3193 116.16 94.7903 115.219C95.4882 113.827 95.7346 112.347 95.6822 110.798C95.6545 109.981 95.3651 109.272 94.9227 108.617C94.4558 107.926 93.7414 107.634 92.946 107.482C92.0942 107.32 91.2537 107.093 90.3977 106.96C89.8086 106.869 89.3468 106.57 88.8849 106.248C88.5986 106.048 88.6427 105.679 88.967 105.507C89.1204 105.427 89.2804 105.362 89.4453 105.311C90.605 104.934 91.7914 104.664 93.0035 104.562C94.388 104.447 95.7766 104.4 97.1611 104.31C97.6804 104.276 98.1967 104.211 98.7129 104.15C99.6233 104.042 100.52 104.029 101.429 104.249C102.447 104.496 103.019 105.083 103.136 106.115C103.199 106.677 103.317 107.243 103.284 107.799C103.207 109.099 103.581 110.282 104.033 111.466C104.404 112.437 104.766 113.417 105.035 114.42C105.237 115.169 105.282 115.958 105.396 116.728ZM33.1467 126.714C34.6801 126.731 36.1723 126.998 37.6533 127.341C39.8475 127.853 42.0387 128.381 44.2381 128.874C44.9966 129.044 45.7714 129.17 46.5453 129.248C48.0181 129.397 49.3861 129.058 50.6403 128.258C51.1514 127.932 51.6625 127.596 52.2075 127.334C52.6724 127.112 53.1794 126.969 53.6792 126.834C53.8742 126.782 54.1092 126.823 54.3145 126.867C54.6234 126.932 54.7948 127.335 54.6286 127.591C54.5116 127.77 54.3792 127.95 54.2211 128.093C53.5119 128.731 52.8089 129.379 52.0699 129.982C51.0898 130.783 49.9096 131.058 48.68 131.155C47.5993 131.241 46.5176 131.316 45.4358 131.382C43.92 131.472 42.4144 131.651 40.9098 131.863C39.8373 132.016 38.7545 132.101 37.6738 132.177C35.9424 132.301 34.2079 132.377 32.4776 132.502C30.7913 132.623 29.1082 132.802 27.423 132.912C25.1723 133.059 22.9195 133.168 20.6678 133.284C18.9784 133.371 17.285 133.404 15.5998 133.539C14.2995 133.643 13.033 133.937 11.8702 134.584C11.3037 134.9 10.7104 135.169 10.1193 135.436C10.0279 135.477 9.83703 135.437 9.77032 135.364C9.66769 135.247 9.56301 135.06 9.58354 134.923C9.61535 134.721 9.73133 134.517 9.85551 134.347C10.3389 133.679 10.8162 133.004 11.3385 132.367C12.3741 131.106 13.6098 130.153 15.2283 129.697C18.3185 128.827 21.4242 128.025 24.6057 127.585C26.5373 127.317 28.4852 127.165 30.4249 126.968C31.3332 126.877 32.2405 126.798 33.1467 126.714ZM173.088 120.719C173.034 121.367 172.862 121.946 172.534 122.469C171.912 123.458 171.277 124.44 170.644 125.423C170.573 125.533 170.492 125.637 170.407 125.733C169.965 126.231 169.493 126.36 168.896 126.059C168.434 125.821 167.996 125.54 167.588 125.219C166.904 124.685 166.266 124.094 165.589 123.554C164.573 122.744 163.537 121.955 162.51 121.157C161.964 120.732 161.415 120.308 160.87 119.878C159.684 118.945 159.054 117.71 158.82 116.23C158.631 115.033 158.387 113.844 158.138 112.659C157.912 111.585 157.909 110.507 158.012 109.424C158.053 108.997 158.277 108.773 158.725 108.632C159.238 108.469 159.587 108.543 160.033 108.834C162.099 110.184 164.2 111.48 166.283 112.803C166.653 113.029 167.007 113.282 167.341 113.559C168.626 114.659 169.9 115.772 171.162 116.898C172.16 117.791 172.834 118.881 173.016 120.235C173.04 120.407 173.067 120.577 173.088 120.719ZM119.605 125.436C119.452 126.463 119.303 127.451 118.894 128.371C118.755 128.684 118.59 129.003 118.367 129.259C117.856 129.846 117.337 130.436 116.757 130.953C115.755 131.846 114.701 132.682 113.674 133.547C111.781 135.134 109.893 136.729 107.998 138.315C107.499 138.732 106.997 139.149 106.464 139.518C106.114 139.759 105.711 139.935 105.315 140.101C104.936 140.257 104.663 140.16 104.417 139.831C104.289 139.657 104.169 139.474 104.076 139.279C103.797 138.687 103.351 138.329 102.709 138.188C102.417 138.124 102.125 138.018 101.853 137.889C101.53 137.734 101.38 137.363 101.469 137.007C101.658 136.242 101.948 135.508 102.492 134.929C103.05 134.326 103.648 133.76 104.281 133.236C104.884 132.744 105.549 132.327 106.204 131.902C106.906 131.446 107.47 130.867 107.954 130.184C108.848 128.905 109.765 127.643 110.706 126.398C111.922 124.806 113.296 123.366 114.923 122.18C115.236 121.952 115.507 121.665 115.8 121.408C116.021 121.214 116.264 121.191 116.512 121.354C117.056 121.71 117.618 122.043 118.135 122.434C119.131 123.193 119.608 124.224 119.605 125.436ZM29.4982 156.564C29.0517 156.488 28.5386 156.416 28.0316 156.311C25.825 155.863 23.6256 155.388 21.3852 155.115C19.7092 154.91 18.0517 154.569 16.3819 154.306C15.3987 154.152 14.4124 153.99 13.421 153.909C10.5852 153.676 7.88395 152.918 5.25145 151.888C4.36471 151.541 3.50158 151.135 2.61895 150.779C1.80611 150.453 1.67987 149.692 1.52592 148.998C1.4161 148.501 1.76095 148.1 2.15711 147.793C2.22191 147.736 2.30336 147.701 2.38946 147.693C2.47556 147.686 2.56178 147.707 2.63538 147.752C2.86322 147.878 3.08798 148.009 3.32095 148.123C5.35409 149.126 7.50319 149.498 9.75801 149.321C10.5351 149.254 11.3142 149.212 12.0939 149.195C13.4394 149.173 14.7839 149.202 16.1294 149.181C16.7329 149.172 17.3343 149.091 17.9378 149.047C18.1092 149.035 18.2816 149.018 18.4519 149.024C19.5788 149.067 20.7047 149.147 21.8316 149.154C24.4107 149.17 26.6666 150.039 28.6576 151.647C29.6008 152.41 30.5419 153.178 31.4708 153.959C31.7361 154.182 31.9751 154.435 32.183 154.712C32.4591 155.083 32.3739 155.571 32.028 155.885C31.6606 156.217 31.2173 156.39 30.74 156.463C30.3541 156.521 29.961 156.528 29.4982 156.564ZM125.952 113.225C125.998 113.83 125.835 114.366 125.517 114.848C124.629 116.192 123.659 117.474 122.485 118.58C122.052 118.988 121.5 119.28 120.975 119.579C120.664 119.757 120.218 119.492 120.199 119.138C120.183 118.793 120.201 118.447 120.251 118.106C120.331 117.547 120.45 116.996 120.548 116.442C120.82 114.896 120.677 113.395 119.876 112.031C118.817 110.23 118.001 108.314 117.116 106.432C116.378 104.866 115.772 103.235 115.111 101.632C115.062 101.513 115.024 101.386 114.991 101.263C114.782 100.445 114.869 99.7474 115.604 99.1727C116.527 98.4522 117.385 97.6497 118.284 96.8994C118.519 96.7087 118.779 96.5499 119.057 96.4273C119.813 96.0835 120.387 96.2395 120.871 96.9169C121.202 97.3808 121.396 97.9062 121.53 98.4625C121.848 99.7672 122.18 101.069 122.527 102.366C122.638 102.784 122.807 103.187 122.951 103.595C123.442 104.984 123.94 106.372 124.421 107.763C124.816 108.91 125.202 110.06 125.58 111.213C125.799 111.87 126.011 112.534 125.952 113.225ZM72.1426 151.823C71.8286 151.743 71.4807 151.698 71.1666 151.57C70.5498 151.319 70.3702 150.589 70.7879 150.06C70.9505 149.856 71.1462 149.683 71.3667 149.546C71.8438 149.246 72.3324 148.965 72.8313 148.703C76.5979 146.721 80.5256 145.116 84.5405 143.714C85.6448 143.329 86.7409 142.92 87.8371 142.511C89.668 141.829 91.5657 141.373 93.4551 140.899C94.1602 140.722 94.893 140.654 95.6145 140.542C96.8194 140.354 97.9986 140.084 99.0495 139.43C99.885 138.912 100.767 138.599 101.761 138.729C102.058 138.768 102.36 138.832 102.639 138.942C103.427 139.25 103.621 139.594 103.564 140.442C103.546 140.715 103.465 140.955 103.259 141.135C102.868 141.478 102.488 141.836 102.073 142.147C99.7054 143.925 97.0811 145.093 94.1171 145.429C93.9457 145.449 93.7722 145.456 93.5978 145.462C89.199 145.632 85.0537 146.82 81.0972 148.68C78.5797 149.863 76.0313 150.933 73.3239 151.602C72.9493 151.692 72.5634 151.743 72.1426 151.823ZM114.663 120.976C114.366 121.416 114.09 121.908 113.729 122.329C113.392 122.719 112.989 123.066 112.572 123.374C111.266 124.336 110.215 125.543 109.196 126.786C108.563 127.558 107.933 128.332 107.275 129.08C106.342 130.141 105.192 130.908 103.888 131.436C103.044 131.777 102.199 132.117 101.336 132.4C99.1902 133.106 97.0677 133.853 95.2193 135.208C94.9484 135.406 94.6713 135.321 94.6189 135.02C94.4845 134.257 94.0965 133.664 93.531 133.148C93.3145 132.952 93.1688 132.668 93.022 132.406C92.8208 132.046 92.826 131.679 92.9809 131.284C93.2909 130.491 93.7425 129.857 94.4968 129.406C96.7659 128.049 99.086 126.778 101.452 125.598C103.12 124.766 104.801 123.96 106.471 123.135C108.46 122.152 110.513 121.343 112.684 120.875C113.267 120.748 113.882 120.774 114.482 120.743C114.524 120.741 114.572 120.853 114.663 120.976ZM175.383 73.9233C175.239 76.2038 174.69 78.1476 173.691 79.9662C172.788 81.6104 171.69 83.1191 170.521 84.5754C169.409 85.964 168.198 87.2757 167.106 88.6807C163.852 92.8609 160.622 97.0606 157.411 101.274C156.224 102.832 154.987 104.338 153.573 105.694C153.261 105.995 152.975 106.326 152.663 106.627C152.542 106.742 152.389 106.832 152.236 106.905C152.011 107.014 151.66 106.763 151.699 106.517C151.736 106.305 151.792 106.097 151.866 105.895C152.153 105.077 152.464 104.266 152.74 103.445C153.243 101.954 154.044 100.61 154.783 99.2353C155.071 98.7016 155.392 98.1844 155.673 97.6456C155.972 97.0635 156.401 96.5589 156.929 96.1718C157.523 95.7335 158.099 95.2696 158.716 94.8663C159.667 94.2454 160.518 93.5116 161.335 92.7285C163.24 90.9016 164.272 88.6714 164.424 86.0472C164.461 85.4355 164.666 84.9521 165.115 84.5652C165.54 84.1957 165.969 83.8262 166.425 83.4947C167.451 82.7465 168.326 81.8526 169.119 80.8643C170.83 78.7295 172.528 76.5845 174.008 74.2774C174.192 73.988 174.437 73.7334 174.675 73.483C174.87 73.2777 175.213 73.3691 175.308 73.6411C175.343 73.7322 175.368 73.8268 175.383 73.9233Z" fill="black"/>
<path d="M112.992 114.173C112.652 115.748 112.267 117.258 111.73 118.724C111.646 118.954 111.439 119.157 111.247 119.328C109.395 120.983 107.219 122.236 104.858 123.006C104.694 123.063 104.519 123.077 104.349 123.046C104.196 123.012 104.001 122.911 103.944 122.787C103.895 122.676 103.965 122.446 104.062 122.348C104.276 122.137 104.55 121.986 104.781 121.79C105.496 121.18 105.971 120.427 106.143 119.489C106.214 119.106 106.312 118.729 106.436 118.36C107.081 116.415 107.062 114.503 106.064 112.685C105.247 111.195 104.985 109.583 104.817 107.935C104.773 107.504 104.711 107.074 104.63 106.649C104.521 106.047 104.236 105.492 103.811 105.053C103.293 104.515 103.331 104.274 103.889 103.776C104.018 103.66 104.149 103.541 104.294 103.45C105.289 102.829 106.277 102.198 107.288 101.606C107.812 101.302 108.209 101.386 108.508 101.908C108.874 102.545 109.193 103.216 109.442 103.905C109.724 104.681 109.949 105.476 110.117 106.283C110.488 108.089 111.219 109.75 112.03 111.388C112.261 111.855 112.493 112.325 112.662 112.816C112.819 113.261 112.889 113.736 112.992 114.173ZM201.741 94.9144C199.725 94.8764 197.867 94.391 196.249 93.1512C195.524 92.5986 194.809 92.0334 194.103 91.4557C191.958 89.6874 189.837 87.8903 187.681 86.1373C185.988 84.7621 184.149 83.6116 182.12 82.7885C181.601 82.577 181.054 82.4323 180.527 82.2373C180.222 82.1244 180.192 81.6995 180.454 81.4933C180.74 81.2695 181.057 81.1299 181.42 81.2182C182.177 81.4029 182.943 81.5661 183.683 81.8073C187.315 82.9978 190.832 84.4819 194.335 86.0039C197.041 87.1801 199.774 88.2916 202.486 89.4523C203.163 89.7428 203.837 90.0609 204.454 90.455C205.547 91.156 205.773 91.7708 205.431 92.9983C205.168 93.9414 204.62 94.6219 203.548 94.7143C202.945 94.7686 202.344 94.8477 201.741 94.9144ZM89.3071 139.281C88.2233 139.31 87.1478 139.298 86.0835 139.005C84.8037 138.652 83.8369 137.881 83.061 136.865C82.1178 135.63 82.1917 133.653 83.1882 132.359C84.5573 130.58 86.2426 129.322 88.5497 129.001C89.537 128.863 90.5028 128.618 91.5076 128.777C91.6359 128.798 91.7703 128.799 91.8914 128.837C92.4949 129.034 92.7535 129.413 92.4405 130.022C92.3615 130.177 92.2917 130.335 92.2106 130.49C91.7785 131.315 91.7949 132.127 92.1644 132.987C92.8469 134.575 92.8253 134.585 94.1729 136.127C94.6512 136.673 94.6265 137.639 94.0846 138.118C93.2821 138.827 92.345 139.252 91.2582 139.279C90.6085 139.294 89.9578 139.281 89.3071 139.281Z" fill="black"/>
<path d="M113.617 118.523C113.745 117.834 113.905 117.115 114.009 116.387C114.125 115.617 114.202 114.842 114.241 114.064C114.286 112.949 113.932 111.935 113.322 111.001C112.848 110.276 112.349 109.557 111.968 108.785C111.373 107.582 110.789 106.364 110.351 105.1C109.965 103.992 109.993 102.792 110.005 101.62C110.007 101.389 110.153 101.159 110.379 101.15C110.94 101.13 111.336 100.782 111.787 100.534C112.014 100.409 112.243 100.275 112.487 100.194C113.247 99.9377 113.723 100.117 114.135 100.797C114.996 102.217 115.527 103.775 116.038 105.342C116.36 106.329 116.739 107.298 117.064 108.284C117.458 109.477 117.819 110.68 118.199 111.875C118.435 112.617 118.692 113.355 118.925 114.098C119.254 115.148 118.997 116.073 118.255 116.856C117.515 117.648 116.75 118.415 115.96 119.157C115.618 119.473 115.186 119.715 114.762 119.92C114.263 120.161 113.812 119.897 113.696 119.337C113.644 119.085 113.645 118.822 113.617 118.523ZM179.673 138.671C179.733 138.368 179.792 137.979 179.889 137.603C180.325 135.914 180.931 134.3 181.829 132.794C183.827 129.436 185.628 125.965 187.223 122.398C187.596 121.569 188.057 120.779 188.477 119.97C188.997 118.973 189.978 118.678 190.945 118.465C191.72 118.295 192.48 119.222 192.347 120.107C192.276 120.571 192.117 121.037 191.916 121.464C191.566 122.209 191.195 122.95 190.757 123.646C189.275 126.006 188.061 128.501 186.948 131.049C186.165 132.843 185.251 134.559 184.078 136.142C183.133 137.415 181.919 138.395 180.768 139.447C180.579 139.62 180.339 139.754 180.054 139.647C179.814 139.557 179.664 139.254 179.673 138.884V138.671ZM215.351 114.362C215.34 115.039 214.887 115.37 214.368 115.192C213.782 114.992 213.299 114.625 212.849 114.21C211.598 113.056 210.488 111.781 209.558 110.355C207.838 107.716 206.65 104.835 205.743 101.832C205.618 101.418 205.579 100.979 205.469 100.559C205.295 99.8915 205.173 99.1916 204.886 98.5727C204.487 97.7147 204.573 96.9871 205.155 96.2769C205.265 96.1434 205.347 95.9792 205.475 95.8684C205.732 95.6446 205.999 95.2957 206.283 95.2741C206.707 95.2434 207.022 95.6539 207.321 95.9464C207.499 96.1209 207.596 96.3836 207.715 96.6155C209.4 99.9008 210.929 103.252 212.08 106.768C212.334 107.547 212.723 108.283 213.046 109.04C213.214 109.435 213.365 109.838 213.542 110.229C213.644 110.465 213.767 110.692 213.909 110.906C214.528 111.813 214.9 112.831 215.264 113.853C215.334 114.051 215.336 114.275 215.351 114.362ZM174.739 124.349C174.623 126.985 174.221 129.417 173.294 131.735C172.941 132.616 172.498 133.47 172.007 134.284C171.421 135.247 170.938 136.27 170.566 137.335C169.558 140.246 168.782 143.224 167.946 146.186C167.865 146.472 167.766 146.76 167.622 147.019C167.467 147.296 167.013 147.289 166.855 147.012C166.732 146.794 166.634 146.543 166.596 146.295C166.444 145.299 166.489 144.294 166.644 143.31C167.113 140.356 167.592 137.405 168.143 134.467C168.503 132.545 169.071 130.677 170.148 129.008C170.521 128.419 170.778 127.765 170.906 127.081C171.182 125.695 171.883 124.491 172.558 123.282C172.743 122.95 173.037 122.667 173.327 122.41C173.861 121.935 174.649 122.277 174.671 122.939C174.688 123.458 174.72 123.979 174.739 124.349ZM193.1 117.932C192.802 117.883 192.5 117.855 192.207 117.783C191.58 117.626 190.956 117.449 190.334 117.274C190.168 117.227 190.005 117.165 189.846 117.094C189.41 116.894 189.21 116.493 189.346 116.025C189.426 115.732 189.544 115.451 189.699 115.19C191.043 113.008 192.057 110.66 193.184 108.367C194.395 105.904 196.264 103.987 198.431 102.341C198.959 101.939 199.521 101.828 200.126 102.163C200.378 102.303 200.511 102.531 200.465 102.809C200.415 103.104 200.319 103.396 200.22 103.681C199.71 105.16 198.99 106.545 198.252 107.919C197.924 108.53 197.582 109.133 197.261 109.747C196.469 111.257 195.934 112.845 195.785 114.557C195.744 115.028 195.625 115.497 195.499 115.955C195.42 116.243 195.289 116.526 195.137 116.785C194.684 117.552 194.048 118.014 193.1 117.932ZM62.8656 82.1701C62.845 81.8438 62.8204 81.6282 62.8194 81.4117C62.8184 81.1592 62.9867 81.0196 63.2053 80.9519C63.4475 80.877 63.7636 81.0525 63.8026 81.3173C64.013 82.75 64.6606 84.0411 65.0968 85.4C65.5483 86.804 65.9353 88.2275 65.9927 89.7166C66.0276 90.5993 65.9209 91.4501 65.4396 92.2188C65.3472 92.3656 65.2671 92.5216 65.1594 92.656C63.9186 94.1986 62.531 94.2396 61.1147 93.0091C60.2023 92.2168 59.8841 91.1514 60.0606 89.9465C60.1759 89.1726 60.4124 88.4217 60.7616 87.7215C61.2235 86.7896 61.7017 85.8639 62.1748 84.9361C62.6357 84.0329 62.9097 83.0856 62.8656 82.1701ZM65.8747 120.139C65.9856 120.155 66.2052 120.165 66.4135 120.218C66.7534 120.3 67.0543 120.497 67.2647 120.776C67.4752 121.056 67.582 121.399 67.5671 121.748C67.5568 122.049 67.522 122.362 67.4234 122.643C66.8384 124.308 65.9784 125.808 64.5939 126.939C63.856 127.541 63.0698 128.086 62.2826 128.627C61.633 129.073 60.892 129.332 60.1263 129.509C59.9611 129.548 59.7825 129.555 59.6121 129.542C59.2519 129.514 59.0138 129.037 59.2355 128.749C59.4438 128.478 59.7035 128.243 59.956 128.01C60.4332 127.569 60.9351 127.152 61.402 126.7C61.9142 126.204 62.2385 125.614 62.3072 124.877C62.3709 124.188 62.4992 123.504 62.6172 122.821C62.9117 121.107 64.0633 120.133 65.8747 120.139ZM222.23 120.223C222.057 120.181 221.678 120.099 221.304 120C219.282 119.468 217.781 118.223 216.594 116.551C216.471 116.377 216.376 116.178 216.292 115.979C216.117 115.573 216.419 115.333 216.644 115.084C216.814 114.895 217.077 114.899 217.356 115.073C217.574 115.211 217.78 115.372 217.996 115.515C219.19 116.297 220.387 117.075 221.581 117.857C221.943 118.093 222.311 118.323 222.657 118.581C222.861 118.741 223.045 118.924 223.206 119.127C223.371 119.333 223.485 119.57 223.339 119.843C223.204 120.095 222.983 120.208 222.705 120.221C222.618 120.226 222.531 120.223 222.23 120.223ZM133.471 34.1704C133.654 34.156 133.769 34.2125 133.733 34.4249L133.753 34.4054C133.576 34.4075 133.486 34.3233 133.498 34.1427L133.471 34.1704ZM133.498 34.1427C133.328 34.1365 133.244 34.0493 133.247 33.8789L133.214 33.9117C133.379 33.92 133.476 33.9939 133.469 34.1694L133.498 34.1427Z" fill="black"/>
<path d="M133.246 33.8778L132.993 33.6212L132.967 33.6438L133.215 33.9106L133.246 33.8778ZM132.992 33.6212L132.919 33.5842L132.967 33.6427L132.992 33.6212ZM130.102 19.5607L130.212 19.4375C130.205 19.4673 130.207 19.5114 130.19 19.5217C130.159 19.5381 130.118 19.534 130.081 19.5381L130.102 19.5607Z" fill="black"/>
</g>
<defs>
<clipPath id="clip0_1_237">
<rect width="225" height="156" fill="white" transform="translate(0 0.6875)"/>
</clipPath>
</defs>
</svg>
